<svg xmlns="http://www.w3.org/2000/svg" width="165.826" height="213.559" viewBox="0 0 165.826 213.559">
  <path id="パス_1216" data-name="パス 1216" d="M155.861,35.563A70.894,70.894,0,0,0,96.931.059C96.25.059,95.569,0,94.892,0A78.145,78.145,0,0,0,15.934,73.892c-.053,1.046-.106,10.823-.106,16.733a2.74,2.74,0,0,1-.209,1.1L.035,132.614c-.053.156-.053.209.053.313s.209.105.419.105h24a3.246,3.246,0,0,1,3.034,3.347V163.1A15.131,15.131,0,0,0,42.81,178.105h.21c2.038-.053,31.739-.106,33.048-.106a2.938,2.938,0,0,1,3.034,2.2l8.42,33.36h69.285c-1.2-4.709-3.24-13.649-5.125-24.157-3.871-21.389-5.177-38.853-3.974-51.873.89-9.412,9.412-30.538,9.778-31.428.053-.105.105-.156.105-.262a72.559,72.559,0,0,0-1.729-70.275M153.77,79.8l-5.857,15.216A3.066,3.066,0,0,1,144.879,97l-7.374-.209a48.223,48.223,0,0,1-8.993,9.465l.524,7.373a3.064,3.064,0,0,1-1.882,3.085l-14.9,6.538a3.11,3.11,0,0,1-3.5-.681l-5.126-5.333a52.047,52.047,0,0,1-13.074.313L85.79,123.1a3.169,3.169,0,0,1-3.5.89L67.07,118.131a3.066,3.066,0,0,1-1.986-3.034l.209-7.374a48.26,48.26,0,0,1-9.465-8.993l-7.373.524a3.065,3.065,0,0,1-3.085-1.882l-6.536-14.9a3.107,3.107,0,0,1,.68-3.5l5.333-5.126a52.048,52.048,0,0,1-.313-13.074L38.99,56.008a3.171,3.171,0,0,1-.89-3.5l5.857-15.216A3.068,3.068,0,0,1,46.99,35.3l7.374.209a48.3,48.3,0,0,1,8.993-9.465l-.524-7.373a3.065,3.065,0,0,1,1.882-3.085L79.623,9a3.109,3.109,0,0,1,3.5.68l5.126,5.331a52.112,52.112,0,0,1,13.074-.313l4.758-5.544a3.172,3.172,0,0,1,3.5-.89L124.8,14.124a3.068,3.068,0,0,1,1.986,3.034l-.209,7.374a48.268,48.268,0,0,1,9.465,8.995L143.417,33a3.063,3.063,0,0,1,3.085,1.883l6.538,14.9a3.109,3.109,0,0,1-.681,3.5l-5.333,5.126a51.987,51.987,0,0,1,.313,13.074l5.544,4.758a3.162,3.162,0,0,1,.887,3.553" transform="translate(0 0.001)" fill="#2fc996"/>
</svg>
