<svg xmlns="http://www.w3.org/2000/svg" xmlns:xlink="http://www.w3.org/1999/xlink" width="1145" height="221" viewBox="0 0 1145 221">
  <defs>
    <clipPath id="clip-path">
      <rect id="長方形_83" data-name="長方形 83" width="1145" height="221" rx="15" transform="translate(302 2431)" fill="#fff"/>
    </clipPath>
  </defs>
  <g id="マスクグループ_6" data-name="マスクグループ 6" transform="translate(-302 -2431)" clip-path="url(#clip-path)">
    <rect id="長方形_79" data-name="長方形 79" width="1145" height="221" rx="15" transform="translate(302 2431)" fill="#fff"/>
    <path id="パス_1219" data-name="パス 1219" d="M170.069,1.036C167.2-.124,159.7-1.942,151.918,6.13L92.869,67.445A31.467,31.467,0,0,0,90.327,70.5a31.243,31.243,0,0,0-2.541-3.052L28.73,6.13C20.949-1.942,13.448-.132,10.583,1.036,6.631,2.626,0,7.394,0,21.384V158.9c0,12.99,5.707,28.717,13.274,36.584L72.33,256.8c4.669,4.843,9.239,6.13,12.765,6.13a14.249,14.249,0,0,0,5.23-.99,14.265,14.265,0,0,0,5.232.99c3.526,0,8.1-1.287,12.768-6.13l59.056-61.321c7.564-7.859,13.271-23.586,13.271-36.576V21.384c0-13.989-6.632-18.757-10.583-20.347M159.189,158.9c0,7.963-3.912,18.2-7.271,21.693l-50.861,52.782V104.021c0-7.963,3.9-18.195,7.268-21.685l50.864-52.79Z" transform="translate(1239 2414.54)" fill="#2fc996" opacity="0.45"/>
  </g>
</svg>
