<svg xmlns="http://www.w3.org/2000/svg" xmlns:xlink="http://www.w3.org/1999/xlink" width="1144" height="221" viewBox="0 0 1144 221">
  <defs>
    <clipPath id="clip-path">
      <rect id="長方形_81" data-name="長方形 81" width="1144" height="221" rx="15" transform="translate(302 2431)" fill="#fff"/>
    </clipPath>
  </defs>
  <g id="マスクグループ_5" data-name="マスクグループ 5" transform="translate(-302 -2431)" clip-path="url(#clip-path)">
    <rect id="長方形_79" data-name="長方形 79" width="1144" height="221" rx="15" transform="translate(302 2431)" fill="#fff"/>
    <g id="グループ_56" data-name="グループ 56" transform="translate(-168 -244.343)" opacity="0.45">
      <path id="パス_1217" data-name="パス 1217" d="M25.648,164.355H222.92a18.466,18.466,0,0,0,18.448-18.444V18.445A18.467,18.467,0,0,0,222.92,0H25.648A18.468,18.468,0,0,0,7.2,18.445V145.912a18.467,18.467,0,0,0,18.448,18.444M17.695,18.445a7.96,7.96,0,0,1,7.953-7.95H222.92a7.96,7.96,0,0,1,7.953,7.95V145.912a7.959,7.959,0,0,1-7.953,7.948H25.648a7.959,7.959,0,0,1-7.953-7.948Z" transform="translate(1395.406 2673.353)" fill="#2fc996"/>
      <path id="パス_1218" data-name="パス 1218" d="M252.173,150.963l-13.184-20.29a14.342,14.342,0,0,0-12.069-6.55H23.145a14.378,14.378,0,0,0-13.217,8.7l-8.752,20.29A14.394,14.394,0,0,0,14.4,173.2H240.105a14.388,14.388,0,0,0,12.068-22.232m-146.378-14a4.818,4.818,0,0,1,4.819-4.817h33.271a4.817,4.817,0,0,1,4.817,4.817v5.8a4.818,4.818,0,0,1-4.817,4.817H110.614a4.818,4.818,0,0,1-4.819-4.817Zm107.351,27.4H41.353a5.9,5.9,0,1,1,0-11.806H213.146a5.9,5.9,0,1,1,0,11.806" transform="translate(1392.44 2724.48)" fill="#2fc996"/>
    </g>
  </g>
</svg>
