<svg xmlns="http://www.w3.org/2000/svg" width="42.393" height="39.346" viewBox="0 0 42.393 39.346">
  <path id="call_FILL1_wght400_GRAD0_opsz24" d="M159.92-800.654a37.672,37.672,0,0,1-14.543-2.978,43.719,43.719,0,0,1-13.071-8.443,40.47,40.47,0,0,1-9.1-12.132A30.841,30.841,0,0,1,120-837.7a2.143,2.143,0,0,1,.707-1.639,2.5,2.5,0,0,1,1.766-.656h9.539a2.29,2.29,0,0,1,1.472.519,1.97,1.97,0,0,1,.765,1.229l1.531,7.651a3.585,3.585,0,0,1-.059,1.476,2.269,2.269,0,0,1-.648,1.038l-5.711,5.355a26.365,26.365,0,0,0,2.8,3.907,39.651,39.651,0,0,0,3.562,3.634,40.647,40.647,0,0,0,3.827,3.142,37.547,37.547,0,0,0,4.239,2.65l5.535-5.137a3.365,3.365,0,0,1,1.384-.738,4.075,4.075,0,0,1,1.678-.136l8.125,1.53a2.761,2.761,0,0,1,1.354.792,1.846,1.846,0,0,1,.53,1.284v8.853a2.144,2.144,0,0,1-.707,1.639A2.5,2.5,0,0,1,159.92-800.654Z" transform="translate(-120 840)" fill="#30554c"/>
</svg>
